# xmcd
#
# Track frame offsets:
#	150
#	14641
#	30181
#	42397
#	54487
#	70805
#	82097
#	97132
#	110242
#	128345
#	144735
#	155219
#	172014
#	181902
#	196709
#	211294
#	226053
#	243076
#
# Disc length: 3380
#
# Revision: 1
# Processed by: cddbd v1.5.1PL0 Copyright (c) Steve Scherf et al.
# Submitted via: dBpowerAMP V4.0
# Normalized: r0:TDELIM( - )
#
DISCID=f70d3212
DTITLE=Various Artist - It´s Country Time - Tom Dooley
DYEAR=1900
DGENRE=Country
TTITLE0=Mel Tillis - Detroit City
TTITLE1=The Hollywood Filmfestival Orchestra - Once Upon A Time In The West
TTITLE2=Gene Watson - No One Will Ever Know
TTITLE3=Nitty Gritty Dirt Band - High Horse
TTITLE4=Kathy Mattea - Someone Is Falling
TTITLE5=Tom T. Hall - Ravishing Ruby
TTITLE6=Johnny Rodriguez - How Could I Love Her So Much
TTITLE7=Bobby Rare - 500 Miles Away From Home - Four Strong Winds
TTITLE8=George Jones - Bartender Blues
TTITLE9=Denise Price - Love Affair
TTITLE10=Mark Gray - Diamond In The Dust
TTITLE11=Tanya Tucker - The Night They Drove Old Dixie Down
TTITLE12=Gail Davies - I'll Be There
TTITLE13=T.G. (The Good) Sheppard - Do It Again
TTITLE14=Earl Thomas Conley - Love Don't Care
TTITLE15=Reno Riggins - Tom Dooley
TTITLE16=Freddy Fender - Jambalaya
TTITLE17=Johnny Cash - Cold Cold Heart
EXTD=rip by Feenix
EXTT0=
EXTT1=
EXTT2=
EXTT3=
EXTT4=
EXTT5=
EXTT6=
EXTT7=
EXTT8=
EXTT9=
EXTT10=
EXTT11=
EXTT12=
EXTT13=
EXTT14=
EXTT15=
EXTT16=
EXTT17=
PLAYORDER=
